<svg width="87" height="86" viewBox="0 0 87 86" fill="none" xmlns="http://www.w3.org/2000/svg">
<g id="label">
<g id="text">
<g id="Vector">
<path d="M3.48791 38.6705L4.2279 36.8104C4.57734 35.963 5.21456 35.6943 5.99567 35.9836C6.79733 36.2937 7.08511 36.955 6.73567 37.8024L6.22178 39.1045L7.96899 39.7866L7.74288 40.3446L3.48791 38.6705ZM5.74901 38.9185L6.20122 37.8024C6.46844 37.1617 6.28345 36.769 5.79012 36.5623C5.29678 36.3557 4.90623 36.5417 4.63901 37.1824L4.18679 38.2985L5.74901 38.9185Z" fill="#1B3B36"/>
<path d="M3.48791 38.6705L4.2279 36.8104C4.57734 35.963 5.21456 35.6943 5.99567 35.9836C6.79733 36.2937 7.08511 36.955 6.73567 37.8024L6.22178 39.1045L7.96899 39.7866L7.74288 40.3446L3.48791 38.6705ZM5.74901 38.9185L6.20122 37.8024C6.46844 37.1617 6.28345 36.769 5.79012 36.5623C5.29678 36.3557 4.90623 36.5417 4.63901 37.1824L4.18679 38.2985L5.74901 38.9185Z" fill="black" fill-opacity="0.2"/>
</g>
<g id="Vector_2">
<path d="M5.9546 33.1339L7.08515 31.2947C7.53737 30.5507 8.2157 30.3647 8.83236 30.7367C9.28458 31.026 9.57235 31.4807 9.40791 32.018C9.77791 31.6047 10.1479 31.7287 10.559 31.9353C10.9701 32.142 11.3812 32.4313 11.7718 32.3693L11.4018 32.948C11.1551 32.9893 10.7851 32.6586 10.374 32.4933C9.96291 32.328 9.59291 32.204 9.26402 32.7L8.48292 33.9813L10.1273 35.0146L9.81902 35.5312L5.9546 33.1339ZM8.70903 32.638C9.01736 32.1626 9.14069 31.6667 8.58569 31.3153C8.19514 31.088 7.80459 31.1087 7.49626 31.584L6.6946 32.886L8.05125 33.7126L8.70903 32.638Z" fill="#1B3B36"/>
<path d="M5.9546 33.1339L7.08515 31.2947C7.53737 30.5507 8.2157 30.3647 8.83236 30.7367C9.28458 31.026 9.57235 31.4807 9.40791 32.018C9.77791 31.6047 10.1479 31.7287 10.559 31.9353C10.9701 32.142 11.3812 32.4313 11.7718 32.3693L11.4018 32.948C11.1551 32.9893 10.7851 32.6586 10.374 32.4933C9.96291 32.328 9.59291 32.204 9.26402 32.7L8.48292 33.9813L10.1273 35.0146L9.81902 35.5312L5.9546 33.1339ZM8.70903 32.638C9.01736 32.1626 9.14069 31.6667 8.58569 31.3153C8.19514 31.088 7.80459 31.1087 7.49626 31.584L6.6946 32.886L8.05125 33.7126L8.70903 32.638Z" fill="black" fill-opacity="0.2"/>
</g>
<g id="Vector_3">
<path d="M9.47001 27.9072L11.5667 25.5512L11.9572 25.9026L10.2717 27.8039L11.3611 28.7752L12.9233 26.9979L13.3139 27.3492L11.7106 29.1265L12.8822 30.1805L14.5883 28.2585L14.9789 28.6099L12.8617 30.9865L9.47001 27.9072Z" fill="#1B3B36"/>
<path d="M9.47001 27.9072L11.5667 25.5512L11.9572 25.9026L10.2717 27.8039L11.3611 28.7752L12.9233 26.9979L13.3139 27.3492L11.7106 29.1265L12.8822 30.1805L14.5883 28.2585L14.9789 28.6099L12.8617 30.9865L9.47001 27.9072Z" fill="black" fill-opacity="0.2"/>
</g>
<g id="Vector_4">
<path d="M13.5196 23.6253L14.1773 23.1293L17.6512 25.2993L16.459 21.3727L17.1167 20.8767L19.9123 24.514L19.4395 24.8653L17.1168 21.8273L18.2884 25.7333L17.8773 26.064L14.4445 23.894L16.7673 26.932L16.2945 27.2833L13.5196 23.6253Z" fill="#1B3B36"/>
<path d="M13.5196 23.6253L14.1773 23.1293L17.6512 25.2993L16.459 21.3727L17.1167 20.8767L19.9123 24.514L19.4395 24.8653L17.1168 21.8273L18.2884 25.7333L17.8773 26.064L14.4445 23.894L16.7673 26.932L16.2945 27.2833L13.5196 23.6253Z" fill="black" fill-opacity="0.2"/>
</g>
<g id="Vector_5">
<path d="M19.6027 19.4106L20.1372 19.1213L22.3161 23.1718L21.7816 23.4612L19.6027 19.4106Z" fill="#1B3B36"/>
<path d="M19.6027 19.4106L20.1372 19.1213L22.3161 23.1718L21.7816 23.4612L19.6027 19.4106Z" fill="black" fill-opacity="0.2"/>
</g>
<g id="Vector_6">
<path d="M27.0858 19.3305C27.4969 20.4051 27.0858 21.2318 26.0169 21.6037C24.907 22.0171 24.0642 21.7484 23.6531 20.5911L22.6459 17.8425L23.2214 17.6359L24.2286 20.3844C24.4959 21.1491 25.1125 21.3971 25.8525 21.1078C26.5719 20.8391 26.8186 20.2604 26.5308 19.5165L25.5236 16.7679L26.0992 16.5612L27.0858 19.3305Z" fill="#1B3B36"/>
<path d="M27.0858 19.3305C27.4969 20.4051 27.0858 21.2318 26.0169 21.6037C24.907 22.0171 24.0642 21.7484 23.6531 20.5911L22.6459 17.8425L23.2214 17.6359L24.2286 20.3844C24.4959 21.1491 25.1125 21.3971 25.8525 21.1078C26.5719 20.8391 26.8186 20.2604 26.5308 19.5165L25.5236 16.7679L26.0992 16.5612L27.0858 19.3305Z" fill="black" fill-opacity="0.2"/>
</g>
<g id="Vector_7">
<path d="M28.9556 15.7962L29.7778 15.6722L31.7922 19.2681L32.635 15.2382L33.4572 15.1142L34.1561 19.6608L33.5805 19.7435L33.005 15.9822L32.1622 19.9708L31.6483 20.0328L29.675 16.4782L30.2505 20.2394L29.675 20.3221L28.9556 15.7962Z" fill="#1B3B36"/>
<path d="M28.9556 15.7962L29.7778 15.6722L31.7922 19.2681L32.635 15.2382L33.4572 15.1142L34.1561 19.6608L33.5805 19.7435L33.005 15.9822L32.1622 19.9708L31.6483 20.0328L29.675 16.4782L30.2505 20.2394L29.675 20.3221L28.9556 15.7962Z" fill="black" fill-opacity="0.2"/>
</g>
<g id="Vector_8">
<path d="M39.8497 15.1359L41.967 15.4459C42.8303 15.5699 43.2825 16.1073 43.1797 16.8306C43.0975 17.368 42.7892 17.802 42.2342 17.864C42.7481 18.05 42.8097 18.4427 42.7686 18.8974C42.7275 19.352 42.6453 19.8481 42.8508 20.1787L42.1725 20.0754C42.0286 19.8481 42.1931 19.3934 42.1725 18.918C42.1725 18.4634 42.1108 18.0707 41.5353 17.988L40.0553 17.7813L39.7675 19.7241L39.1509 19.6414L39.8497 15.1359ZM41.412 17.492C41.9875 17.5747 42.4808 17.492 42.5631 16.8306C42.6247 16.3966 42.4192 16.0246 41.8847 15.9419L40.3842 15.7146L40.1581 17.306L41.412 17.492Z" fill="#1B3B36"/>
<path d="M39.8497 15.1359L41.967 15.4459C42.8303 15.5699 43.2825 16.1073 43.1797 16.8306C43.0975 17.368 42.7892 17.802 42.2342 17.864C42.7481 18.05 42.8097 18.4427 42.7686 18.8974C42.7275 19.352 42.6453 19.8481 42.8508 20.1787L42.1725 20.0754C42.0286 19.8481 42.1931 19.3934 42.1725 18.918C42.1725 18.4634 42.1108 18.0707 41.5353 17.988L40.0553 17.7813L39.7675 19.7241L39.1509 19.6414L39.8497 15.1359ZM41.412 17.492C41.9875 17.5747 42.4808 17.492 42.5631 16.8306C42.6247 16.3966 42.4192 16.0246 41.8847 15.9419L40.3842 15.7146L40.1581 17.306L41.412 17.492Z" fill="black" fill-opacity="0.2"/>
</g>
<g id="Vector_9">
<path d="M47.9299 16.8078C49.3071 17.2831 49.636 18.6058 49.2249 19.8044C48.8343 20.9824 47.7655 21.8504 46.3883 21.3751C45.011 20.8997 44.6822 19.5771 45.0933 18.3784C45.4633 17.1798 46.5527 16.3324 47.9299 16.8078ZM46.5321 20.8584C47.5805 21.2097 48.341 20.4451 48.6288 19.5771C48.9166 18.7091 48.7932 17.6344 47.7449 17.2831C46.6966 16.9318 45.936 17.6964 45.6483 18.5644C45.3605 19.4324 45.4838 20.5071 46.5321 20.8584Z" fill="#1B3B36"/>
<path d="M47.9299 16.8078C49.3071 17.2831 49.636 18.6058 49.2249 19.8044C48.8343 20.9824 47.7655 21.8504 46.3883 21.3751C45.011 20.8997 44.6822 19.5771 45.0933 18.3784C45.4633 17.1798 46.5527 16.3324 47.9299 16.8078ZM46.5321 20.8584C47.5805 21.2097 48.341 20.4451 48.6288 19.5771C48.9166 18.7091 48.7932 17.6344 47.7449 17.2831C46.6966 16.9318 45.936 17.6964 45.6483 18.5644C45.3605 19.4324 45.4838 20.5071 46.5321 20.8584Z" fill="black" fill-opacity="0.2"/>
</g>
<g id="Vector_10">
<path d="M54.1348 19.661C55.3887 20.3843 55.4504 21.7689 54.8337 22.8436C54.2171 23.9182 53.0043 24.5589 51.7299 23.8149C50.4554 23.0709 50.4143 21.7069 51.031 20.6323C51.6887 19.5577 52.9015 18.917 54.1348 19.661ZM51.9971 23.3809C52.9632 23.9389 53.8471 23.3396 54.2993 22.5543C54.7721 21.7483 54.8337 20.6943 53.8882 20.1157C52.9221 19.5577 52.0382 20.157 51.586 20.9423C51.1132 21.7483 51.0515 22.8023 51.9971 23.3809Z" fill="#1B3B36"/>
<path d="M54.1348 19.661C55.3887 20.3843 55.4504 21.7689 54.8337 22.8436C54.2171 23.9182 53.0043 24.5589 51.7299 23.8149C50.4554 23.0709 50.4143 21.7069 51.031 20.6323C51.6887 19.5577 52.9015 18.917 54.1348 19.661ZM51.9971 23.3809C52.9632 23.9389 53.8471 23.3396 54.2993 22.5543C54.7721 21.7483 54.8337 20.6943 53.8882 20.1157C52.9221 19.5577 52.0382 20.157 51.586 20.9423C51.1132 21.7483 51.0515 22.8023 51.9971 23.3809Z" fill="black" fill-opacity="0.2"/>
</g>
<g id="Vector_11">
<path d="M58.2272 22.4935L58.8644 23.0515L57.3638 26.8749L61.0021 24.9942L61.6394 25.5522L58.5766 28.9622L58.1449 28.5696L60.6938 25.7175L57.0966 27.5982L56.7061 27.2469L58.186 23.4442L55.6372 26.2962L55.2055 25.9035L58.2272 22.4935Z" fill="#1B3B36"/>
<path d="M58.2272 22.4935L58.8644 23.0515L57.3638 26.8749L61.0021 24.9942L61.6394 25.5522L58.5766 28.9622L58.1449 28.5696L60.6938 25.7175L57.0966 27.5982L56.7061 27.2469L58.186 23.4442L55.6372 26.2962L55.2055 25.9035L58.2272 22.4935Z" fill="black" fill-opacity="0.2"/>
</g>
<g id="Vector_12">
<path d="M64.1063 30.7186C64.5996 30.2639 64.538 29.7473 64.168 29.2513C63.8596 28.8587 63.4074 28.528 62.9141 28.9C62.4619 29.2307 62.8319 29.892 63.1402 30.5739C63.4485 31.2559 63.6952 31.9998 62.9552 32.5371C62.1741 33.1158 61.2902 32.5991 60.7969 31.9378C60.1802 31.1112 60.0569 30.1193 60.9408 29.4373L61.2902 29.9126C60.6736 30.3673 60.7969 31.1112 61.208 31.6485C61.5369 32.1032 62.0302 32.4751 62.5647 32.0618C63.058 31.6898 62.7291 31.0286 62.4208 30.3466C62.1124 29.6646 61.8452 28.9413 62.503 28.4454C63.243 27.8667 64.0858 28.3007 64.5791 28.962C65.1546 29.706 65.2163 30.5532 64.4352 31.1732L64.1063 30.7186Z" fill="#1B3B36"/>
<path d="M64.1063 30.7186C64.5996 30.2639 64.538 29.7473 64.168 29.2513C63.8596 28.8587 63.4074 28.528 62.9141 28.9C62.4619 29.2307 62.8319 29.892 63.1402 30.5739C63.4485 31.2559 63.6952 31.9998 62.9552 32.5371C62.1741 33.1158 61.2902 32.5991 60.7969 31.9378C60.1802 31.1112 60.0569 30.1193 60.9408 29.4373L61.2902 29.9126C60.6736 30.3673 60.7969 31.1112 61.208 31.6485C61.5369 32.1032 62.0302 32.4751 62.5647 32.0618C63.058 31.6898 62.7291 31.0286 62.4208 30.3466C62.1124 29.6646 61.8452 28.9413 62.503 28.4454C63.243 27.8667 64.0858 28.3007 64.5791 28.962C65.1546 29.706 65.2163 30.5532 64.4352 31.1732L64.1063 30.7186Z" fill="black" fill-opacity="0.2"/>
</g>
<g id="Vector_13">
<path d="M63.5291 34.5994L63.858 35.2194L63.2413 35.55L62.9124 34.93L63.5291 34.5994Z" fill="#1B3B36"/>
<path d="M63.5291 34.5994L63.858 35.2194L63.2413 35.55L62.9124 34.93L63.5291 34.5994Z" fill="black" fill-opacity="0.2"/>
</g>
<g id="Vector_14">
<path d="M69.7588 39.0445L70.211 40.6565C70.3138 41.0492 70.4577 41.5659 70.3755 41.8552C70.2932 42.1859 70.0466 42.5166 69.5944 42.6406C69.1216 42.7853 68.7105 42.6199 68.4227 42.2479C68.4638 42.8266 68.1349 43.24 67.5799 43.3846C66.9427 43.5707 66.1821 43.2606 65.9355 42.3926L65.3394 40.2638L69.7588 39.0445ZM66.0383 40.7185L66.4494 42.2066C66.5933 42.7233 66.9838 42.9506 67.4771 42.8266C68.0527 42.6613 68.0733 42.1446 67.9499 41.6486L67.5594 40.3052L66.0383 40.7185ZM68.0321 40.1605L68.3405 41.3386C68.5255 42.0206 68.8338 42.2066 69.286 42.0826C69.9027 41.9172 69.8616 41.4626 69.7177 40.9459L69.4094 39.7678L68.0321 40.1605Z" fill="#1B3B36"/>
<path d="M69.7588 39.0445L70.211 40.6565C70.3138 41.0492 70.4577 41.5659 70.3755 41.8552C70.2932 42.1859 70.0466 42.5166 69.5944 42.6406C69.1216 42.7853 68.7105 42.6199 68.4227 42.2479C68.4638 42.8266 68.1349 43.24 67.5799 43.3846C66.9427 43.5707 66.1821 43.2606 65.9355 42.3926L65.3394 40.2638L69.7588 39.0445ZM66.0383 40.7185L66.4494 42.2066C66.5933 42.7233 66.9838 42.9506 67.4771 42.8266C68.0527 42.6613 68.0733 42.1446 67.9499 41.6486L67.5594 40.3052L66.0383 40.7185ZM68.0321 40.1605L68.3405 41.3386C68.5255 42.0206 68.8338 42.2066 69.286 42.0826C69.9027 41.9172 69.8616 41.4626 69.7177 40.9459L69.4094 39.7678L68.0321 40.1605Z" fill="black" fill-opacity="0.2"/>
</g>
<g id="Vector_15">
<path d="M71.3191 46.441L71.3807 47.123L67.0024 49.3344L66.9408 48.6524L68.2563 48.0324L68.0713 46.1103L66.653 45.7177L66.5913 45.077L71.3191 46.441ZM68.6058 46.2343L68.7496 47.7844L70.7846 46.813L68.6058 46.2343Z" fill="#1B3B36"/>
<path d="M71.3191 46.441L71.3807 47.123L67.0024 49.3344L66.9408 48.6524L68.2563 48.0324L68.0713 46.1103L66.653 45.7177L66.5913 45.077L71.3191 46.441ZM68.6058 46.2343L68.7496 47.7844L70.7846 46.813L68.6058 46.2343Z" fill="black" fill-opacity="0.2"/>
</g>
<g id="Vector_16">
<path d="M71.5464 51.2577L71.4847 51.8984L67.5998 53.9857L71.2792 54.2957L71.2381 54.8744L66.6748 54.5024L66.7159 53.841L70.5597 51.7537L66.9214 51.4437L66.9625 50.865L71.5464 51.2577Z" fill="#1B3B36"/>
<path d="M71.5464 51.2577L71.4847 51.8984L67.5998 53.9857L71.2792 54.2957L71.2381 54.8744L66.6748 54.5024L66.7159 53.841L70.5597 51.7537L66.9214 51.4437L66.9625 50.865L71.5464 51.2577Z" fill="black" fill-opacity="0.2"/>
</g>
<g id="Vector_17">
<path d="M70.7245 57.7898L70.56 58.3684L68.3606 57.7691L69.9639 60.6211L69.7584 61.3651L68.4839 59.0091L65.339 60.2284L65.5445 59.4844L68.2167 58.4924L67.744 57.5624L66.2023 57.1284L66.3667 56.5498L70.7245 57.7898Z" fill="#1B3B36"/>
<path d="M70.7245 57.7898L70.56 58.3684L68.3606 57.7691L69.9639 60.6211L69.7584 61.3651L68.4839 59.0091L65.339 60.2284L65.5445 59.4844L68.2167 58.4924L67.744 57.5624L66.2023 57.1284L66.3667 56.5498L70.7245 57.7898Z" fill="black" fill-opacity="0.2"/>
</g>
<g id="Vector_18">
<path d="M67.3947 66.8009L67.0863 67.3175L65.4008 66.2842L64.1674 68.3509L65.853 69.3842L65.5447 69.9009L61.6391 67.5035L61.9475 66.9869L63.7358 68.0822L64.9691 66.0155L63.1808 64.9202L63.4891 64.4036L67.3947 66.8009Z" fill="#1B3B36"/>
<path d="M67.3947 66.8009L67.0863 67.3175L65.4008 66.2842L64.1674 68.3509L65.853 69.3842L65.5447 69.9009L61.6391 67.5035L61.9475 66.9869L63.7358 68.0822L64.9691 66.0155L63.1808 64.9202L63.4891 64.4036L67.3947 66.8009Z" fill="black" fill-opacity="0.2"/>
</g>
<g id="Vector_19">
<path d="M62.5428 73.8262C61.5562 74.9008 60.22 74.6735 59.2951 73.8262C58.3701 72.9789 58.0206 71.677 58.9867 70.5817C59.9528 69.4864 61.3095 69.7344 62.2345 70.5817C63.1595 71.429 63.5089 72.7309 62.5428 73.8262ZM59.3773 70.933C58.6373 71.7597 59.0278 72.7723 59.7062 73.3716C60.3845 73.9709 61.4123 74.3015 62.1523 73.4749C62.8922 72.6483 62.5017 71.6357 61.8234 71.0364C61.145 70.4371 60.1173 70.1064 59.3773 70.933Z" fill="#1B3B36"/>
<path d="M62.5428 73.8262C61.5562 74.9008 60.22 74.6735 59.2951 73.8262C58.3701 72.9789 58.0206 71.677 58.9867 70.5817C59.9528 69.4864 61.3095 69.7344 62.2345 70.5817C63.1595 71.429 63.5089 72.7309 62.5428 73.8262ZM59.3773 70.933C58.6373 71.7597 59.0278 72.7723 59.7062 73.3716C60.3845 73.9709 61.4123 74.3015 62.1523 73.4749C62.8922 72.6483 62.5017 71.6357 61.8234 71.0364C61.145 70.4371 60.1173 70.1064 59.3773 70.933Z" fill="black" fill-opacity="0.2"/>
</g>
<g id="Vector_20">
<path d="M57.8774 77.3592L59.0902 76.4292L59.3985 76.8219L56.5002 79.0746L56.1919 78.6819L57.4046 77.7519L54.938 74.5278L55.4313 74.1558L57.8774 77.3592Z" fill="#1B3B36"/>
<path d="M57.8774 77.3592L59.0902 76.4292L59.3985 76.8219L56.5002 79.0746L56.1919 78.6819L57.4046 77.7519L54.938 74.5278L55.4313 74.1558L57.8774 77.3592Z" fill="black" fill-opacity="0.2"/>
</g>
<g id="Vector_21">
<path d="M54.5068 80.3368L51.7318 81.8454L51.4851 81.3908L53.7257 80.1715L53.0268 78.8902L50.9507 80.0268L50.704 79.5722L52.7801 78.4355L52.0196 77.0509L49.7585 78.2909L49.5118 77.8362L52.3074 76.3069L54.5068 80.3368Z" fill="#1B3B36"/>
<path d="M54.5068 80.3368L51.7318 81.8454L51.4851 81.3908L53.7257 80.1715L53.0268 78.8902L50.9507 80.0268L50.704 79.5722L52.7801 78.4355L52.0196 77.0509L49.7585 78.2909L49.5118 77.8362L52.3074 76.3069L54.5068 80.3368Z" fill="black" fill-opacity="0.2"/>
</g>
<g id="Vector_22">
<path d="M49.3465 82.8759L48.7709 83.0825L47.4143 79.2388L45.1326 80.0448L44.9682 79.5488L47.8254 78.5362L49.3465 82.8759Z" fill="#1B3B36"/>
<path d="M49.3465 82.8759L48.7709 83.0825L47.4143 79.2388L45.1326 80.0448L44.9682 79.5488L47.8254 78.5362L49.3465 82.8759Z" fill="black" fill-opacity="0.2"/>
</g>
</g>
<g id="icon">
<g id="Rectangle 93">
<path d="M38.0134 41.8954C38.1006 41.2423 38.7405 40.8162 39.3762 40.9878C39.9696 41.148 40.2895 41.7933 40.0574 42.3621L36.9262 50.0383L38.0134 41.8954Z" fill="#FCD043"/>
</g>
<g id="Rectangle 95">
<path d="M45.0191 51.1426C45.6709 51.2317 46.0982 51.8737 45.9291 52.5098C45.7712 53.1034 45.1283 53.4215 44.5602 53.1871L36.9217 50.0356L45.0191 51.1426Z" fill="#FCD043"/>
</g>
<g id="Rectangle 97">
<path d="M43.4354 45.0918C43.9586 44.6909 44.7132 44.8431 45.0422 45.4158C45.3493 45.9503 45.1196 46.6342 44.553 46.8721L36.9414 50.0677L43.4354 45.0918Z" fill="#FCD043"/>
</g>
<g id="Rectangle 99">
<path d="M41.8959 56.6122C42.293 57.1364 42.1421 57.8918 41.5745 58.2212C41.0447 58.5285 40.3667 58.2986 40.1305 57.7314L36.9397 50.0709L41.8959 56.6122Z" fill="#FCD043"/>
</g>
<g id="Rectangle 94">
<path d="M35.8314 58.1818C35.7442 58.8348 35.1042 59.2609 34.4685 59.0893C33.8751 58.9291 33.5552 58.2839 33.7873 57.715L36.9186 50.0386L35.8314 58.1818Z" fill="#FCD043"/>
</g>
<g id="Rectangle 96">
<path d="M28.8257 48.9314C28.1738 48.8423 27.7465 48.2002 27.9157 47.5641C28.0736 46.9705 28.7164 46.6524 29.2846 46.8868L36.923 50.0384L28.8257 48.9314Z" fill="#FCD043"/>
</g>
<g id="Rectangle 98">
<path d="M30.4444 55.0501C29.9213 55.451 29.1667 55.2988 28.8376 54.7261C28.5305 54.1916 28.7603 53.5077 29.3269 53.2699L36.9384 50.0743L30.4444 55.0501Z" fill="#FCD043"/>
</g>
<g id="Rectangle 100">
<path d="M31.9879 43.5315C31.5908 43.0074 31.7417 42.252 32.3093 41.9227C32.839 41.6153 33.5171 41.8453 33.7533 42.4125L36.9441 50.0727L31.9879 43.5315Z" fill="#FCD043"/>
</g>
</g>
</g>
</svg>
